<svg id="0752d766-39cd-430d-b059-2f9b859e3b1a" data-name="Laag 1" xmlns="http://www.w3.org/2000/svg" viewBox="0 0 124.21 27.98">
  <title>logo</title>
  <g>
    <path d="M94.58,134.17a4.12,4.12,0,0,0-1.31-.88,4,4,0,0,0-1.59-.32H90.56a4,4,0,0,0-1.59.32,4.09,4.09,0,0,0-2.19,2.19,4,4,0,0,0-.32,1.59v6.3a4,4,0,0,0,.32,1.59A4.09,4.09,0,0,0,89,147.15a4,4,0,0,0,1.59.32h1.12a4,4,0,0,0,1.59-.32A4.09,4.09,0,0,0,95.46,145a4,4,0,0,0,.32-1.59v-.56l-1.68-.27v.93a2.37,2.37,0,0,1-.19.95,2.42,2.42,0,0,1-1.29,1.29,2.37,2.37,0,0,1-.95.19H90.56a2.37,2.37,0,0,1-.95-.19,2.42,2.42,0,0,1-1.29-1.29,2.37,2.37,0,0,1-.19-.95v-3.11h7.65v-3.29a4,4,0,0,0-.32-1.59A4.12,4.12,0,0,0,94.58,134.17ZM94.1,139h-6V137a2.37,2.37,0,0,1,.19-.95,2.42,2.42,0,0,1,1.29-1.29,2.37,2.37,0,0,1,.95-.19h1.12a2.37,2.37,0,0,1,.95.19A2.42,2.42,0,0,1,93.91,136a2.37,2.37,0,0,1,.19.95Z" transform="translate(-33.53 -126.52)" style="fill: #fff"/>
    <path d="M107.26,134.17a4.12,4.12,0,0,0-1.31-.88,4,4,0,0,0-1.59-.32h-.42a4,4,0,0,0-3.12,1.44v-6.76H99.13v15.72a4,4,0,0,0,.32,1.59,4.09,4.09,0,0,0,2.19,2.19,4,4,0,0,0,1.59.32h1.12a4,4,0,0,0,1.59-.32,4.09,4.09,0,0,0,2.19-2.19,4,4,0,0,0,.32-1.59v-6.3a4,4,0,0,0-.32-1.59A4.12,4.12,0,0,0,107.26,134.17Zm-.48,9.3a2.37,2.37,0,0,1-.19.95,2.42,2.42,0,0,1-1.29,1.29,2.37,2.37,0,0,1-.95.19h-1.12a2.37,2.37,0,0,1-.95-.19,2.42,2.42,0,0,1-1.29-1.29,2.37,2.37,0,0,1-.19-.95V137A2.37,2.37,0,0,1,101,136a2.42,2.42,0,0,1,1.29-1.29,2.37,2.37,0,0,1,.95-.19h1.12a2.37,2.37,0,0,1,.95.19,2.42,2.42,0,0,1,1.29,1.29,2.37,2.37,0,0,1,.19.95Z" transform="translate(-33.53 -126.52)" style="fill: #fff"/>
    <path d="M125.54,134.17a4.12,4.12,0,0,0-1.31-.88,4,4,0,0,0-1.59-.32h-1.12a4,4,0,0,0-1.59.32,4.09,4.09,0,0,0-2.19,2.19,4,4,0,0,0-.32,1.59v6.3a4,4,0,0,0,.32,1.59,4.09,4.09,0,0,0,2.19,2.19,4,4,0,0,0,1.59.32h1.12a4,4,0,0,0,1.59-.32,4.09,4.09,0,0,0,2.19-2.19,4,4,0,0,0,.32-1.59v-6.3a4,4,0,0,0-.32-1.59A4.12,4.12,0,0,0,125.54,134.17Zm-.48,9.3a2.37,2.37,0,0,1-.19.95,2.42,2.42,0,0,1-1.29,1.29,2.37,2.37,0,0,1-.95.19h-1.12a2.37,2.37,0,0,1-.95-.19,2.42,2.42,0,0,1-1.29-1.29,2.37,2.37,0,0,1-.19-.95V137a2.37,2.37,0,0,1,.19-.95,2.42,2.42,0,0,1,1.29-1.29,2.37,2.37,0,0,1,.95-.19h1.12a2.37,2.37,0,0,1,.95.19,2.42,2.42,0,0,1,1.29,1.29,2.37,2.37,0,0,1,.19.95Z" transform="translate(-33.53 -126.52)" style="fill: #fff"/>
    <path d="M138.21,134.66a4.19,4.19,0,0,0-1.44-1.23,4,4,0,0,0-1.89-.46h-.7a4,4,0,0,0-1.59.32,4.09,4.09,0,0,0-2.19,2.19,4,4,0,0,0-.32,1.59v1a4,4,0,0,0,.38,1.76,4.2,4.2,0,0,0,1,1.38,2.76,2.76,0,0,0-.86,1,3,3,0,0,0-.31,1.37,3,3,0,0,0,1.43,2.56,3.74,3.74,0,0,0-.82,1.19,3.68,3.68,0,0,0-.3,1.5V149a3.73,3.73,0,0,0,.32,1.55,3.62,3.62,0,0,0,.88,1.21,4,4,0,0,0,1.31.78,4.53,4.53,0,0,0,1.59.28h.7a4.53,4.53,0,0,0,1.59-.28,4,4,0,0,0,1.31-.78,3.62,3.62,0,0,0,.88-1.21,3.73,3.73,0,0,0,.32-1.55v-.05a3.73,3.73,0,0,0-.32-1.55,3.62,3.62,0,0,0-.88-1.21,4,4,0,0,0-1.31-.78,4.53,4.53,0,0,0-1.59-.28h-2.29a1.39,1.39,0,0,1-.55-.11,1.43,1.43,0,0,1-.76-.76,1.39,1.39,0,0,1-.11-.55,1.44,1.44,0,0,1,.11-.55,1.33,1.33,0,0,1,.31-.46,1.58,1.58,0,0,1,.46-.31,1.32,1.32,0,0,1,.55-.12h2.43a4,4,0,0,0,1.59-.32,4.09,4.09,0,0,0,2.19-2.19,4,4,0,0,0,.32-1.59v-4.88h-.56Zm-6,14.16a2.09,2.09,0,0,1,.19-.91,2,2,0,0,1,.52-.67,2.38,2.38,0,0,1,.77-.42,2.94,2.94,0,0,1,.95-.15h.86a2.93,2.93,0,0,1,.95.15,2.38,2.38,0,0,1,.77.42,2,2,0,0,1,.52.67,2.09,2.09,0,0,1,.19.91V149a2,2,0,0,1-.71,1.57,2.31,2.31,0,0,1-.77.43,2.94,2.94,0,0,1-.95.15h-.86a2.94,2.94,0,0,1-.95-.15,2.31,2.31,0,0,1-.77-.43,2,2,0,0,1-.71-1.57Zm5.78-10.6a2.39,2.39,0,0,1-.72,1.72,2.53,2.53,0,0,1-.78.52,2.37,2.37,0,0,1-.95.19h-1.39a2.37,2.37,0,0,1-.95-.19,2.42,2.42,0,0,1-1.29-1.29,2.37,2.37,0,0,1-.19-.95V137A2.37,2.37,0,0,1,132,136a2.42,2.42,0,0,1,1.29-1.29,2.37,2.37,0,0,1,.95-.19h1.39a2.37,2.37,0,0,1,.95.19,2.53,2.53,0,0,1,.78.52A2.39,2.39,0,0,1,138,137Z" transform="translate(-33.53 -126.52)" style="fill: #fff"/>
    <polygon points="76.57 20.55 78.25 20.55 83.38 1 81.7 1 76.57 20.55" style="fill: #388eca"/>
    <polygon points="107.52 20.36 109.2 20.36 112.89 6.75 111.22 6.75 107.52 20.36" style="fill: #388eca"/>
    <path d="M157.16,132.85l-1,1.5a4.45,4.45,0,0,0-1.51-1.3,4.17,4.17,0,0,0-2-.48h-.45a4.24,4.24,0,0,0-1.68.34,4.32,4.32,0,0,0-2.31,2.31,4.24,4.24,0,0,0-.34,1.69v6.65a4.24,4.24,0,0,0,.34,1.68,4.32,4.32,0,0,0,2.31,2.31,4.24,4.24,0,0,0,1.68.34h.45a4.25,4.25,0,0,0,3.3-1.53v7.14h1.77V132.85ZM156,143.65a2.5,2.5,0,0,1-.2,1,2.55,2.55,0,0,1-1.36,1.36,2.5,2.5,0,0,1-1,.2h-1.18a2.5,2.5,0,0,1-1-.2,2.55,2.55,0,0,1-1.36-1.36,2.5,2.5,0,0,1-.2-1v-6.86a2.5,2.5,0,0,1,.2-1,2.55,2.55,0,0,1,1.36-1.36,2.5,2.5,0,0,1,1-.2h1.18a2.5,2.5,0,0,1,1,.2,2.55,2.55,0,0,1,1.36,1.36,2.5,2.5,0,0,1,.2,1Z" transform="translate(-33.53 -126.52)" style="fill: #fff"/>
    <g>
      <path d="M79,143.23l0-.41L79,143Z" transform="translate(-33.53 -126.52)" style="fill: #fff"/>
      <polygon points="41.08 5.8 41.16 5.47 41.15 5.2 41.08 5.8" style="fill: #fff"/>
      <path d="M77.78,147.17l1.67,0,5.17-19.55H82.95C82.16,130.71,78,146.25,77.78,147.17Z" transform="translate(-33.53 -126.52)" style="fill: #388eca"/>
      <polygon points="42.36 1.16 40.64 1.13 36.82 16.71 32.94 1.13 31.18 1.13 36.37 20.67 37.29 20.67 42.36 1.16" style="fill: #388eca"/>
      <polygon points="41.76 10.35 41.12 12.77 44.12 20.74 45.9 20.74 41.76 10.35" style="fill: #388eca"/>
    </g>
  </g>
  <g>
    <path d="M56.06,131.1l-.22-.2-.25-.23-.39-.3,0,0a1.4,1.4,0,0,0,.11-.53,1.43,1.43,0,1,0-.44,1l.05,0,.34.26.23.21.22.2.17.15A12.1,12.1,0,0,1,59.44,142l-2.53-.54c0-.31,0-.62,0-.94a9.56,9.56,0,0,0-.19-1.88c0-.08,0-.16-.06-.24s-.05-.21-.08-.32-.06-.28-.11-.41-.13-.36-.19-.53l0,0a1.39,1.39,0,0,0,.57-1.11,1.42,1.42,0,1,0-1.42,1.42,1.35,1.35,0,0,0,.3-.06l0,.07c.08.22.17.44.23.67l.07.28c0,.09.05.18.07.28a9,9,0,0,1,.2,1.87c0,.28,0,.55,0,.82s0,.39-.08.58a9,9,0,0,1-3.52,5.8l-.11-.18-1.27-2a6.38,6.38,0,0,0-6-11.06l0,0c-.17.06-.34.13-.51.2l-.17.08h0l-.19.11-.18.1-.14.08h0a6.39,6.39,0,0,0-3.1,5.47,5.82,5.82,0,0,0,0,.63,1.43,1.43,0,1,0,.6-.08v0c0-.17-.05-.34-.05-.52A5.78,5.78,0,0,1,44,135.83c.15-.11.3-.2.45-.3l1.19,1.9a3.48,3.48,0,1,0,5.23,3,3.44,3.44,0,0,0-.15-1c0-.09-.05-.19-.09-.28a3.46,3.46,0,0,0-.16-.34l-.06-.1h0a1.38,1.38,0,0,0,.19-.67,1.42,1.42,0,1,0-1.42,1.42,1.38,1.38,0,0,0,.81-.29h0l.07.15c0,.09.06.18.09.27s.05.16.07.25a2.82,2.82,0,0,1-.7,2.48l-.06.07h0l-.1.11-.17.14-.19.13h0l-.14.08-.19.1-.3.14-.34.11-.13,0a2.89,2.89,0,0,1-1.42-5.6l-.32-.51-1.2-1.92a5.68,5.68,0,0,1,5.57.36l.32.23a5.84,5.84,0,0,1,.54.44c.12.12.23.24.34.37l.15.18a5.64,5.64,0,0,1,.63,6.37c-.06.11-.11.21-.17.32s-.15.24-.23.36-.21.26-.32.39a5.8,5.8,0,0,1-.44.47L51,145a5.32,5.32,0,0,1-3.64,1.32,6.84,6.84,0,0,1-1.41-.2,1.34,1.34,0,0,0,0-.3,1.42,1.42,0,1,0-1.42,1.42,1.39,1.39,0,0,0,1.1-.56h0l.11,0a6.28,6.28,0,0,0,4.89-.73l.17-.1.48.77.86,1.37,0,.06a8.94,8.94,0,0,1-1.72.86l-.3.11-.39.12c-.2.06-.4.11-.6.16h-.08a9.15,9.15,0,0,1-1,.13l-.61,0h-.23a8.9,8.9,0,0,1-4.44-1.23c-.17-.1-.34-.2-.5-.31a9,9,0,0,1,.36-15.08l.51-.29a8.88,8.88,0,0,1,6.06-.82h.06l.1,0a1.33,1.33,0,0,0,0,.2,1.42,1.42,0,1,0,1.42-1.42,1.39,1.39,0,0,0-1.17.67l-.11,0a9.43,9.43,0,0,0-2.16-.27A9.65,9.65,0,0,0,43,132l-.11.05h0l-1.51-2.4a12.2,12.2,0,0,1,4-1.32l.24,0,.31,0,.33,0,.64,0h0a1.4,1.4,0,0,0,1.36,1.16,1.42,1.42,0,1,0,0-2.83A1.4,1.4,0,0,0,47,127.61h0l-.75,0-.33,0-.3,0c-.28,0-.56.07-.83.13l-.18,0c-.34.07-.68.16-1,.26l-.29.09-.15.05a12.61,12.61,0,0,0-1.19.47l-.37.18-.46.22c-.17.09-.32.2-.48.29h0l-.3.18A13.25,13.25,0,0,0,38,131.53l-.07.08c-.28.29-.53.59-.78.89l-.29.39c-.16.22-.31.44-.46.66l-.3.5q-.2.35-.38.72l-.2.41a12.26,12.26,0,0,0-.46,1.16v0l-.06.17-.06.19v0a1.41,1.41,0,1,0,.58.11v0l0-.06A12.34,12.34,0,0,1,40.84,130l.08,0,1.51,2.41-.51.33a9.53,9.53,0,0,0-.69,15.11l.18.15c.21.17.42.33.64.48l-.08.12-1.47,2.2A12.36,12.36,0,0,1,36,145.35h0a1.39,1.39,0,0,0,.59-1.12,1.42,1.42,0,1,0-1.42,1.42,1.35,1.35,0,0,0,.3-.06,13,13,0,0,0,4.74,5.64l.5.31a12.78,12.78,0,0,0,6.38,1.81h0a1.4,1.4,0,0,0,1.36,1.15,1.42,1.42,0,0,0,0-2.83,1.4,1.4,0,0,0-1.35,1.09h-.29a12.2,12.2,0,0,1-5.77-1.66L41,151l1.55-2.32a9.48,9.48,0,0,0,10-.19l.48-.34a9.55,9.55,0,0,0,3.77-6.11V142l2.53.54v0a12.27,12.27,0,0,1-3.78,6.9l-.08.07,0,0a1.38,1.38,0,0,0-.8-.28,1.42,1.42,0,1,0,1.42,1.42,1.37,1.37,0,0,0-.22-.71l0,0a12.85,12.85,0,0,0,4-7.3c0-.19.06-.39.09-.58a12.65,12.65,0,0,0-4-11Zm-2.2-.1A1.18,1.18,0,1,1,55,129.82,1.18,1.18,0,0,1,53.86,131Zm.43,5a1.18,1.18,0,1,1,1.18,1.18A1.18,1.18,0,0,1,54.29,136Zm-11.59,6.47a1.18,1.18,0,1,1-1.18-1.18A1.18,1.18,0,0,1,42.71,142.44ZM48,138.08a1.18,1.18,0,0,1,2.36,0,1.16,1.16,0,0,1-.3.76l-.08.09a1.17,1.17,0,0,1-2-.85ZM44.59,147a1.21,1.21,0,1,1,1.06-.67A1.18,1.18,0,0,1,44.59,147Zm6.25-16.18A1.18,1.18,0,1,1,49.66,132,1.18,1.18,0,0,1,50.84,130.8Zm-2.52-4a1.18,1.18,0,1,1-1.18,1.18A1.18,1.18,0,0,1,48.33,126.76Zm-12.2,11.39A1.18,1.18,0,1,1,35,137,1.18,1.18,0,0,1,36.13,138.15ZM34,144.23a1.18,1.18,0,1,1,1.18,1.18A1.18,1.18,0,0,1,34,144.23Zm14.52,7.68a1.18,1.18,0,1,1-1.18,1.18A1.18,1.18,0,0,1,48.48,151.91Zm6.18,0a1.18,1.18,0,1,1,1.18-1.18A1.18,1.18,0,0,1,54.66,151.92Z" transform="translate(-33.53 -126.52)" style="fill: #fff"/>
    <circle cx="14.79" cy="1.42" r="0.89" style="fill: #388eca"/>
    <circle cx="20.33" cy="3.3" r="0.89" style="fill: #388eca"/>
    <circle cx="17.31" cy="5.46" r="0.89" style="fill: #388eca"/>
    <circle cx="21.94" cy="9.45" r="0.89" style="fill: #388eca"/>
    <circle cx="15.61" cy="11.56" r="0.89" style="fill: #388eca"/>
    <circle cx="21.12" cy="24.21" r="0.89" style="fill: #388eca"/>
    <circle cx="14.94" cy="26.56" r="0.89" style="fill: #388eca"/>
    <circle cx="7.99" cy="15.92" r="0.89" style="fill: #388eca"/>
    <circle cx="11.06" cy="19.28" r="0.89" style="fill: #388eca"/>
    <circle cx="1.61" cy="17.7" r="0.89" style="fill: #388eca"/>
    <circle cx="1.42" cy="11.63" r="0.89" style="fill: #388eca"/>
  </g>
</svg>
